<?xml version="1.0" standalone="no"?>
<!DOCTYPE svg PUBLIC "-//W3C//DTD SVG 20010904//EN"
 "http://www.w3.org/TR/2001/REC-SVG-20010904/DTD/svg10.dtd">
<svg version="1.0" xmlns="http://www.w3.org/2000/svg"
 width="1088.000000pt" height="1088.000000pt" viewBox="0 0 1088.000000 1088.000000"
 preserveAspectRatio="xMidYMid meet">
<metadata>
Created by potrace 1.11, written by Peter Selinger 2001-2013
</metadata>
<g transform="translate(0.000000,1088.000000) scale(0.100000,-0.100000)"
fill="#000000" stroke="none">
<path d="M1250 5440 l0 -5440 4190 0 4190 0 0 3673 0 3674 -77 69 c-42 38 -94
85 -115 104 -21 19 -66 60 -100 90 -34 30 -69 62 -78 70 -8 8 -56 51 -105 95
-49 44 -104 94 -122 112 -18 18 -33 31 -33 29 0 -2 -20 15 -44 38 -39 37 -159
145 -208 188 -11 9 -60 54 -111 100 -50 46 -116 106 -147 133 -65 58 -224 201
-256 230 -12 11 -53 48 -91 82 -38 34 -83 74 -100 90 -17 15 -62 56 -100 90
-38 34 -83 74 -100 90 -33 31 -171 155 -242 218 -25 22 -55 49 -67 60 -19 18
-88 80 -228 205 -27 25 -60 54 -71 65 -12 11 -54 49 -95 85 -41 36 -83 74 -94
85 -12 11 -59 54 -105 95 -46 41 -99 89 -117 105 -18 17 -60 55 -94 85 -34 30
-79 71 -100 90 -32 30 -68 62 -184 165 -12 11 -64 58 -116 105 -51 47 -98 90
-104 95 -14 13 -197 177 -212 190 -6 6 -46 42 -89 80 -43 39 -103 94 -134 122
-41 38 -64 53 -86 53 -16 1 -460 3 -985 5 -525 2 -1521 7 -2212 10 l-1258 5 0
-5440z m1917 5107 c655 -3 1197 -8 1202 -12 6 -3 11 -3 11 2 0 9 153 8 168 -1
6 -3 13 -2 17 4 4 6 13 7 23 1 9 -5 26 -5 37 -1 11 4 28 3 38 -2 10 -5 24 -5
36 2 13 7 22 7 26 0 4 -7 12 -7 24 0 10 5 21 7 24 4 3 -3 192 -6 420 -8 l415
-2 43 -39 c24 -22 61 -56 83 -75 21 -19 53 -48 70 -65 18 -16 50 -45 71 -64
22 -19 78 -69 125 -112 47 -42 96 -87 110 -99 14 -12 61 -54 105 -94 72 -66
134 -122 235 -213 19 -17 44 -40 56 -50 25 -21 174 -156 214 -193 15 -14 60
-54 100 -90 40 -36 85 -76 101 -90 15 -14 43 -38 61 -55 19 -16 74 -67 124
-111 49 -45 111 -101 138 -125 27 -24 61 -55 76 -69 15 -14 60 -54 100 -90 40
-36 85 -76 100 -90 15 -14 60 -54 100 -90 40 -36 90 -81 111 -100 20 -19 65
-60 99 -90 35 -30 75 -66 90 -80 15 -14 60 -54 100 -90 40 -36 85 -76 100 -90
35 -32 163 -147 200 -180 15 -14 52 -47 83 -75 30 -27 85 -77 122 -110 37 -33
84 -76 105 -95 20 -19 70 -64 110 -100 41 -36 81 -72 90 -80 9 -8 56 -51 105
-95 49 -44 101 -91 116 -105 15 -14 53 -48 86 -76 32 -29 83 -74 113 -102 l55
-50 0 -3436 c0 -3049 -2 -3436 -15 -3437 -8 -1 -1746 -2 -3863 -3 -3413 -1
-3847 1 -3848 14 -3 35 -5 10196 -2 10205 2 6 76 9 201 8 108 -1 733 -4 1389
-6z"/>
<path d="M5659 10103 c-1 -4 -2 -658 -3 -1453 l-2 -1446 1618 0 c890 0 1618 3
1618 6 0 3 -22 25 -49 48 -27 23 -62 54 -78 69 -17 16 -58 53 -93 83 -65 57
-81 72 -172 155 -30 28 -85 77 -123 110 -37 33 -73 65 -79 70 -6 6 -56 51
-111 100 -55 49 -102 92 -105 95 -3 3 -45 41 -95 85 -49 44 -95 85 -101 90 -9
9 -49 44 -190 170 -98 88 -184 166 -216 196 -21 20 -38 35 -38 33 0 -2 -8 4
-18 14 -20 19 -166 151 -198 179 -17 14 -129 115 -198 178 -6 6 -52 46 -101
90 -50 44 -95 85 -101 90 -6 6 -44 39 -84 75 -41 36 -83 74 -94 85 -12 11 -55
49 -96 85 -40 36 -83 74 -95 85 -11 11 -54 49 -94 85 -40 36 -85 76 -101 90
-15 14 -62 57 -105 95 -44 39 -90 81 -104 94 -14 12 -52 46 -85 75 -32 28 -71
62 -86 76 -15 14 -65 59 -110 100 -46 41 -89 81 -97 88 -7 7 -14 10 -14 5z"/>
<path d="M2989 9577 c0 -1 -1 -1308 -2 -2905 -1 -1928 1 -2902 8 -2903 6 0
515 -1 1132 -2 751 -1 1124 1 1127 8 2 6 4 185 4 398 -1 350 -2 387 -17 388
-9 0 -295 0 -636 0 -341 0 -627 2 -635 5 -13 3 -15 290 -15 2506 l0 2503 -482
2 c-266 1 -483 1 -484 0z"/>
<path d="M5698 6797 c-11 -11 -13 -524 -11 -2918 1 -1597 2 -2910 2 -2916 1
-10 252 -13 1221 -13 1155 0 1220 1 1221 18 7 121 2 855 -6 860 -5 4 -311 7
-680 8 -368 1 -675 2 -680 3 -7 1 -11 257 -10 799 l0 797 495 1 c272 1 497 2
500 3 3 0 5 211 5 467 l0 467 -497 0 c-362 0 -498 3 -499 11 -1 6 -2 352 -3
769 -1 509 2 757 9 758 5 1 316 2 690 3 l680 1 3 434 c1 270 -1 438 -7 444
-11 11 -87 14 -97 5 -3 -3 -21 -2 -40 2 -18 4 -34 5 -34 1 0 -6 -46 -5 -117 2
-18 2 -33 -1 -33 -6 0 -4 -4 -5 -10 -2 -13 8 -80 13 -80 6 0 -8 -79 -6 -86 2
-3 3 -16 2 -29 -3 -13 -5 -26 -6 -29 -3 -5 5 -83 7 -103 3 -12 -3 -74 -1 -110
3 -18 2 -33 -1 -33 -6 0 -4 -4 -5 -10 -2 -13 8 -80 13 -80 6 0 -8 -79 -6 -86
2 -3 3 -17 2 -30 -3 -13 -5 -25 -6 -28 -1 -3 4 -28 5 -56 1 -28 -4 -53 -3 -56
2 -3 4 -12 4 -21 -1 -9 -4 -31 -5 -49 -1 -20 5 -34 4 -34 -1 0 -6 -7 -6 -17
-1 -10 5 -27 6 -38 2 -11 -4 -31 -4 -45 0 -14 3 -42 3 -63 0 -20 -4 -40 -4
-43 1 -2 4 -15 4 -28 -1 -13 -5 -27 -6 -30 -3 -5 5 -83 7 -103 3 -12 -3 -74
-1 -110 3 -18 2 -33 -1 -33 -6 0 -4 -4 -5 -10 -2 -13 8 -80 13 -80 6 0 -8 -79
-6 -86 2 -3 3 -17 2 -30 -3 -13 -5 -25 -6 -28 -1 -3 4 -28 5 -56 1 -28 -4 -53
-3 -56 2 -3 4 -12 4 -21 -1 -9 -4 -31 -5 -49 -1 -20 5 -34 4 -34 -1 0 -6 -7
-6 -17 -1 -10 5 -27 6 -38 2 -11 -4 -31 -4 -45 0 -14 3 -36 4 -50 0 -14 -4
-33 -3 -42 2 -10 5 -21 3 -30 -5z"/>
</g>
</svg>
