<svg xmlns="http://www.w3.org/2000/svg" viewBox="0 0 512 349.05"><defs><style>.cls-1{fill:#fff;}</style></defs><title>delivery-truck</title><g id="Layer_2" data-name="Layer 2"><g id="Capa_1" data-name="Capa 1"><path class="cls-1" d="M418.59,255.22A47.28,47.28,0,0,0,385.22,269a46.32,46.32,0,0,0,0,66.31A47.46,47.46,0,0,0,418.59,349c25.65,0,46.5-21.06,46.5-46.92S444.23,255.22,418.59,255.22Zm0,73c-14.39,0-26.48-11.89-26.48-26.06s12.09-26.06,26.48-26.06a26.07,26.07,0,0,1,0,52.13ZM430.68,98.94a10.12,10.12,0,0,0-7-2.71H370.21a10.46,10.46,0,0,0-10.43,10.43v85.49a10.46,10.46,0,0,0,10.43,10.43h84.86a10.46,10.46,0,0,0,10.43-10.43V134.91a10.43,10.43,0,0,0-3.44-7.71Zm14,82.78h-64V117h39l25,22.52ZM164,255.22A47.28,47.28,0,0,0,130.63,269a46.32,46.32,0,0,0,0,66.31A47.46,47.46,0,0,0,164,349c25.65,0,46.5-21.06,46.5-46.92S189.64,255.22,164,255.22Zm0,73c-14.39,0-26.48-11.89-26.48-26.06s12.09-26.06,26.48-26.06a26.07,26.07,0,0,1,0,52.13ZM94.46,268h-21V240.31a10.43,10.43,0,1,0-20.85,0v38.16a10.46,10.46,0,0,0,10.43,10.43H94.46a10.43,10.43,0,0,0,0-20.85Zm52.86-56.82a10.46,10.46,0,0,0-10.43-10.43H10.43a10.43,10.43,0,0,0,0,20.85H136.89A10.39,10.39,0,0,0,147.31,211.22ZM31.59,173.59l126.46.73A10.53,10.53,0,0,0,168.58,164a10.33,10.33,0,0,0-10.32-10.53L31.8,152.73h-.1a10.43,10.43,0,0,0-.1,20.85Zm21.27-47.33H179.32a10.43,10.43,0,1,0,0-20.85H52.86a10.43,10.43,0,1,0,0,20.85Zm455.28-14.07h0L433.5,50.36a10.27,10.27,0,0,0-6.67-2.4H339V10.43A10.46,10.46,0,0,0,328.61,0H63.07A10.46,10.46,0,0,0,52.65,10.43V86.74a10.43,10.43,0,1,0,20.85,0V20.85H318.29V268H232.8a10.43,10.43,0,0,0,0,20.85H360.1a10.43,10.43,0,1,0,0-20.85h-21V68.81h84l68,56.3-.73,142.73H479.58a10.43,10.43,0,0,0,0,20.85h21.16a10.37,10.37,0,0,0,10.43-10.32L512,120.31A11,11,0,0,0,508.14,112.18Z"/></g></g></svg>