<svg xmlns="http://www.w3.org/2000/svg" viewBox="0 0 92 40.98"><defs><style>.cls-1,.cls-2{fill:#fff;}.cls-1,.cls-3,.cls-4{stroke:#fff;stroke-miterlimit:10;}.cls-1,.cls-4{stroke-width:0.5px;}.cls-3,.cls-4{fill:none;}.cls-4{stroke-linecap:square;}</style></defs><title>LE White</title><g id="Layer_2" data-name="Layer 2"><g id="Layer_1-2" data-name="Layer 1"><path class="cls-1" d="M15.66,18.91v.81H5V3h.87v16Z"/><path class="cls-1" d="M30.35,6.91V19.72h-.82V18.18a7.94,7.94,0,0,1-5,1.64,6.57,6.57,0,1,1,0-13.15,7.8,7.8,0,0,1,5,1.71V6.91Zm-.82,2.45A7,7,0,0,0,24.59,7.5a5.74,5.74,0,1,0,0,11.48,6.9,6.9,0,0,0,4.95-1.81Z"/><path class="cls-1" d="M33.94,17.94A13.53,13.53,0,0,0,38.86,19C41.95,19,43,17.63,43,16.2c0-1.59-1.86-2.23-4.36-2.76-2.8-.57-4.83-1.4-4.83-3.4s2-3.38,4.62-3.38a11.61,11.61,0,0,1,4.64,1l-.28.71a10.33,10.33,0,0,0-4.36-.88c-2.14,0-3.79,1.07-3.79,2.57s1.55,2.07,4.19,2.59c2.94.57,5,1.4,5,3.54,0,1.88-1.36,3.64-5,3.64a13.42,13.42,0,0,1-5.23-1.17Z"/><path class="cls-1" d="M58.79,13.61H47.11A5.62,5.62,0,0,0,52.74,19a6.08,6.08,0,0,0,4.87-2.16l.66.52a7,7,0,0,1-5.58,2.47,6.36,6.36,0,0,1-6.45-6.56,6.36,6.36,0,0,1,6.45-6.59c3.77,0,6.1,2.76,6.1,6.66Zm-11.68-.76H58c-.16-3.14-2.12-5.37-5.27-5.37A5.47,5.47,0,0,0,47.11,12.85Z"/><path class="cls-1" d="M62.94,10a4.6,4.6,0,0,1,4.31-3.3,4.89,4.89,0,0,1,2.19.55L69.23,8a4.64,4.64,0,0,0-2-.48c-2.52,0-4.24,2.38-4.24,5.42v6.73h-.85V6.91h.85Z"/><path class="cls-2" d="M14.52,34.9H4.72V21.33H14.2v2.41H7.61v2.95H13v2.43H7.61v3.38h6.91Z"/><path class="cls-2" d="M28.25,34.9H25l-3-4.51-3,4.51H15.62l4.7-6.78-4.7-6.79h3.29l3,4.52,3-4.52h3.29l-4.72,6.79Z"/><path class="cls-2" d="M34.79,31.53H32.41V34.9H29.52V21.33h5.27a5,5,0,0,1,5.16,5.1A5,5,0,0,1,34.79,31.53ZM37,26.43a2.51,2.51,0,0,0-2.48-2.7H32.41v5.39h2.15A2.5,2.5,0,0,0,37,26.43Z"/><path class="cls-2" d="M49.47,30.59l2.91,4.31H49.16l-2.48-3.69H44.47V34.9H41.58V21.33H47a4.92,4.92,0,0,1,5,4.94A4.85,4.85,0,0,1,49.47,30.59ZM46.81,28.8a2.25,2.25,0,0,0,2.32-2.53,2.25,2.25,0,0,0-2.32-2.53H44.47V28.8Z"/><path class="cls-2" d="M63.82,34.9H54V21.33h9.48v2.41H56.91v2.95H62.3v2.43H56.91v3.38h6.91Z"/><path class="cls-2" d="M75.52,31.15c0,2.66-2.32,3.91-4.87,3.91a7.75,7.75,0,0,1-5.74-2.37l1.9-1.88a5.68,5.68,0,0,0,3.66,1.85c1.16,0,2.15-.45,2.15-1.5s-1.41-1.54-3.2-2.33c-1.48-.65-3.82-1.68-3.82-3.89,0-2.46,2.32-3.75,4.69-3.75a7.48,7.48,0,0,1,5.36,2.13L73.9,25.15a5.87,5.87,0,0,0-3.64-1.56c-.47,0-1.77.14-1.77,1.28,0,.81.69,1.34,2.5,2C73.6,27.84,75.52,28.91,75.52,31.15Z"/><path class="cls-2" d="M87.16,31.15c0,2.66-2.32,3.91-4.87,3.91a7.75,7.75,0,0,1-5.74-2.37l1.9-1.88a5.68,5.68,0,0,0,3.66,1.85c1.16,0,2.15-.45,2.15-1.5s-1.41-1.54-3.2-2.33c-1.48-.65-3.82-1.68-3.82-3.89,0-2.46,2.32-3.75,4.69-3.75a7.48,7.48,0,0,1,5.36,2.13l-1.74,1.83a5.87,5.87,0,0,0-3.64-1.56c-.47,0-1.77.14-1.77,1.28,0,.81.69,1.34,2.5,2C85.24,27.84,87.16,28.91,87.16,31.15Z"/><path class="cls-2" d="M5.74,40.91l-1-4.06h.56l.49,2.06c.12.51.23,1,.3,1.4h0c.07-.4.19-.89.33-1.41l.55-2H7.5L8,38.91c.12.48.23,1,.29,1.39h0c.09-.45.2-.9.33-1.4l.54-2h.54L8.55,40.91H8l-.52-2.12a12.08,12.08,0,0,1-.27-1.33h0a12.5,12.5,0,0,1-.32,1.33l-.58,2.12Z"/><path class="cls-2" d="M13.56,39H12v1.46h1.78v.44H11.44V36.85h2.22v.44H12v1.28h1.6Z"/><path class="cls-2" d="M18.15,36.85h.53v2h0l.32-.43,1.25-1.53h.66l-1.49,1.72,1.6,2.34h-.63l-1.35-2-.39.45v1.55h-.53Z"/><path class="cls-2" d="M24.79,39H23.2v1.46H25v.44H22.67V36.85h2.22v.44H23.2v1.28h1.6Z"/><path class="cls-2" d="M29,39h-1.6v1.46h1.78v.44H26.88V36.85H29.1v.44H27.41v1.28H29Z"/><path class="cls-2" d="M31.09,36.9a6.1,6.1,0,0,1,1-.08,1.7,1.7,0,0,1,1.15.34,1.09,1.09,0,0,1,.36.85,1.19,1.19,0,0,1-.32.87,1.71,1.71,0,0,1-1.25.45,1.89,1.89,0,0,1-.43,0v1.63h-.53Zm.53,2a1.79,1.79,0,0,0,.44,0c.64,0,1-.31,1-.87s-.38-.8-1-.8a2.29,2.29,0,0,0-.5,0Z"/><path class="cls-2" d="M39,40.91V39.19l-1.3-2.34h.6L38.85,38c.16.31.28.55.41.84h0c.12-.27.26-.53.41-.84l.59-1.12h.6L39.5,39.18v1.73Z"/><path class="cls-2" d="M46.07,38.84A1.91,1.91,0,0,1,44.16,41a1.87,1.87,0,0,1-1.84-2.06,1.94,1.94,0,0,1,1.91-2.13A1.86,1.86,0,0,1,46.07,38.84Zm-3.18.07c0,.87.48,1.65,1.31,1.65s1.32-.77,1.32-1.69-.43-1.65-1.31-1.65S42.88,38,42.88,38.9Z"/><path class="cls-2" d="M48.5,36.85v2.41c0,.91.41,1.3,1,1.3s1-.4,1-1.3V36.85H51v2.37c0,1.25-.66,1.76-1.55,1.76S48,40.5,48,39.24V36.85Z"/><path class="cls-2" d="M55.63,36.9a6.1,6.1,0,0,1,1-.08,1.7,1.7,0,0,1,1.15.34,1.09,1.09,0,0,1,.36.85,1.19,1.19,0,0,1-.32.87,1.71,1.71,0,0,1-1.25.45,1.89,1.89,0,0,1-.43,0v1.63h-.53Zm.53,2a1.79,1.79,0,0,0,.44,0c.64,0,1-.31,1-.87s-.38-.8-1-.8a2.29,2.29,0,0,0-.5,0Z"/><path class="cls-2" d="M60.09,36.9a5.52,5.52,0,0,1,1-.08,1.69,1.69,0,0,1,1.19.33,1,1,0,0,1,.32.77,1.07,1.07,0,0,1-.77,1v0a1,1,0,0,1,.6.82,6.43,6.43,0,0,0,.32,1.12h-.55a5.22,5.22,0,0,1-.27-1c-.12-.56-.34-.77-.82-.79h-.5v1.76h-.53Zm.53,1.85h.54c.57,0,.93-.31.93-.77s-.38-.75-.94-.76a2.25,2.25,0,0,0-.52,0Z"/><path class="cls-2" d="M65.11,36.85v4.06h-.53V36.85Z"/><path class="cls-2" d="M67.25,40.91V36.85h.58l1.31,2.06a11.44,11.44,0,0,1,.74,1.32h0c0-.54-.06-1-.06-1.67v-1.7h.5v4.06h-.54l-1.3-2.06a12.92,12.92,0,0,1-.77-1.36h0c0,.51,0,1,0,1.67v1.74Z"/><path class="cls-2" d="M73.25,37.29H72v-.45h3v.45H73.78v3.62h-.54Z"/><path class="cls-2" d="M77.24,36.85v4.06h-.53V36.85Z"/><path class="cls-2" d="M79.38,40.91V36.85H80l1.31,2.06A11.44,11.44,0,0,1,82,40.22h0c0-.54-.06-1-.06-1.67v-1.7h.5v4.06h-.54l-1.3-2.06a12.92,12.92,0,0,1-.77-1.36h0c0,.51,0,1,0,1.67v1.74Z"/><path class="cls-2" d="M87.73,40.73a3.87,3.87,0,0,1-1.26.22,2.12,2.12,0,0,1-1.53-.54,2.08,2.08,0,0,1-.57-1.51,2,2,0,0,1,2.22-2.1,2.57,2.57,0,0,1,1,.19l-.13.43a2.16,2.16,0,0,0-.91-.17,1.53,1.53,0,0,0-1.65,1.63,1.5,1.5,0,0,0,1.58,1.64,1.75,1.75,0,0,0,.71-.11V39.2h-.83v-.42h1.35Z"/><polyline class="cls-3" points="4.04 39.03 0.5 39.03 0.5 0.5 91.5 0.5 91.5 39.04 88.49 39.04"/><polygon class="cls-4" points="73.89 3.14 73.89 19.37 86.27 19.37 86.27 8.43 80.44 3.17 73.89 3.14"/><polygon class="cls-2" points="80.41 4.07 80.41 8.54 85.4 8.54 80.41 4.07"/><path class="cls-2" d="M76.31,4.84H77.8V12.6h2v1.22H76.31Z"/><path class="cls-2" d="M80.46,9.16h3.77v1.36H82.11v2.36h1.53v1.44H82.11v2.47h2.12v1.36H80.46Z"/></g></g></svg>